<svg width="100" height="100" viewBox="0 0 100 100" fill="none" xmlns="http://www.w3.org/2000/svg">
<mask id="mask0_14_33" style="mask-type:alpha" maskUnits="userSpaceOnUse" x="0" y="0" width="100" height="100">
<circle cx="50" cy="50" r="48" fill="#F7F7F7" stroke="white" stroke-width="4"/>
</mask>
<g mask="url(#mask0_14_33)">
<circle cx="50" cy="50" r="48" fill="#F2F2F7" stroke="white" stroke-width="4"/>
<path d="M47.581 21.1616C41.227 21.8944 36.8043 24.6645 34.4012 29.428C33.2513 31.6851 32.7943 34.1034 33.0449 36.6097C33.1187 37.4159 33.384 39.3505 33.6199 40.9042L34.0622 43.7329L33.5757 44.2459C32.529 45.4038 32.2488 47.2945 32.7943 49.6542C33.2513 51.6182 33.6936 52.2485 35.1826 53.0985C35.6101 53.333 36.0671 53.6848 36.1851 53.8607C36.303 54.0512 36.5979 55.0039 36.8485 56.0006C37.4087 58.331 38.2932 60.1484 39.5906 61.6874C40.1361 62.3176 40.7552 63.2117 40.9616 63.6514C41.3007 64.3842 41.3449 64.6187 41.3155 66.0697C41.2712 69.5287 40.313 71.9764 38.1606 74.0869C36.8632 75.3474 35.3595 76.3294 32.8091 77.5752C31.1137 78.396 24.8481 80.9463 24.5385 80.9463C24.2142 80.9463 19.187 83.1594 16.8872 84.3173C12.7151 86.4132 10.4005 88.0401 9.42753 89.5791L9 90.2386V95.1193V100H50.5H92V95.2073C92 90.6637 91.9853 90.3852 91.6904 89.7989C91.1007 88.5678 88.8893 86.8383 85.7345 85.1088C83.3462 83.819 78.4959 81.6645 75.5622 80.6092C71.5375 79.1582 67.2327 77.2674 65.5963 76.2122C61.7632 73.7645 60.0678 71.1703 59.7288 67.2423C59.5666 65.4688 59.6993 64.2523 60.1268 63.4169C60.289 63.0944 60.8639 62.303 61.4094 61.6727C62.6773 60.1484 63.5913 58.287 64.0925 56.2204C64.579 54.1099 64.7559 53.7727 65.4931 53.3037C66.9968 52.351 67.2179 52.1752 67.5718 51.5156C68.4268 49.9327 68.7364 46.8255 68.1762 45.4477C68.0288 45.0813 67.675 44.539 67.4243 44.2459L66.9378 43.7329L67.3801 40.9774C68.1615 35.8916 68.1909 34.1474 67.5275 31.7584C66.5103 28.1675 64.0925 25.1775 60.6723 23.3015C57.3405 21.4694 52.1806 20.6193 47.581 21.1616Z" fill="#D1D1D6"/>
<circle cx="50" cy="50" r="48" stroke="white" stroke-width="4"/>
<circle cx="50" cy="50" r="48" fill="black" fill-opacity="0.25" stroke="white" stroke-width="4"/>
<path fill-rule="evenodd" clip-rule="evenodd" d="M57.5332 59.7069C59.5941 59.5352 61.3385 57.9971 61.6527 55.9404C61.8838 54.4274 62 52.9491 62 51.468C62 49.9869 61.8838 48.5085 61.6527 46.9954C61.3385 44.9387 59.5942 43.4007 57.5332 43.2288C57.1403 43.1961 56.7472 43.166 56.3541 43.1388L55.605 41.7665C55.1536 40.9396 54.3404 40.3258 53.3605 40.194C52.3994 40.0647 51.4498 40 50.5003 40C49.5507 40 48.6007 40.0647 47.6396 40.194C46.6597 40.3258 45.8465 40.9396 45.3951 41.7665L44.646 43.1388C44.2528 43.166 43.8598 43.1961 43.4669 43.2288C41.4059 43.4007 39.6616 44.9387 39.3474 46.9954C39.1162 48.5085 39 49.9869 39 51.468C39 52.9491 39.1162 54.4274 39.3474 55.9404C39.6616 57.9971 41.4059 59.5352 43.4669 59.7069C45.8086 59.9023 48.1546 60 50.5003 60C52.8459 60 55.1915 59.9023 57.5332 59.7069ZM50.4998 46.8979C49.2327 46.8979 48.169 47.2583 47.4226 48.0099C46.6761 48.7615 46.3181 49.8326 46.3181 51.1084C46.3181 52.3842 46.6761 53.4554 47.4226 54.2069C48.169 54.9585 49.2327 55.3189 50.4998 55.3189C51.7669 55.3189 52.8306 54.9585 53.5771 54.2069C54.3235 53.4554 54.6815 52.3842 54.6815 51.1084C54.6815 49.8326 54.3235 48.7615 53.5771 48.0099C52.8306 47.2583 51.7669 46.8979 50.4998 46.8979Z" fill="white"/>
</g>
</svg>
