<svg width="17" height="12" viewBox="0 0 17 12" fill="none" xmlns="http://www.w3.org/2000/svg">
<path d="M2.79787 0.0894289C1.54857 0.280415 0.788131 0.697111 0.40791 1.37424C0.154429 1.82566 0.0820064 2.52016 0.0276891 5.10715C-0.0628397 9.29147 0.0457949 10.3679 0.697602 11.0277C1.49426 11.8437 2.36333 12 6.50955 12C9.93154 12 10.2937 11.9653 11.0722 11.618C11.9594 11.2361 12.4845 10.5416 12.4845 9.76026C12.4845 9.11785 12.7017 9.10049 13.8424 9.58663C15.1822 10.1422 16.0151 10.0901 16.522 9.43037C16.8479 9.03104 16.9204 8.6317 16.9747 6.87811C17.1557 2.20763 16.3953 1.16589 13.7337 2.46807C12.7017 2.95422 12.4845 2.88477 12.4845 1.99929C12.4845 1.37424 11.6335 0.54085 10.7463 0.280415C9.89533 0.0373421 4.06527 -0.101557 2.79787 0.0894289Z" fill="white"/>
</svg>
