<svg width="118" height="20" viewBox="0 0 118 20" fill="none" xmlns="http://www.w3.org/2000/svg">
<path d="M1.60156 4.50781H3.77344V16H1.60156V4.50781ZM6.00781 7.5H8.13281V8.36719C8.61719 7.96094 9.05469 7.67969 9.44531 7.52344C9.84115 7.36198 10.2448 7.28125 10.6562 7.28125C11.5 7.28125 12.2161 7.57552 12.8047 8.16406C13.2995 8.66406 13.5469 9.40365 13.5469 10.3828V16H11.4375V12.2734C11.4375 11.2578 11.3906 10.5833 11.2969 10.25C11.2083 9.91667 11.0495 9.66406 10.8203 9.49219C10.5964 9.3151 10.3177 9.22656 9.98438 9.22656C9.55208 9.22656 9.17969 9.3724 8.86719 9.66406C8.5599 9.95052 8.34635 10.349 8.22656 10.8594C8.16406 11.125 8.13281 11.7005 8.13281 12.5859V16H6.00781V7.5ZM21.4453 4.50781H23.5859L26.2422 12.5234L28.9375 4.50781H31.0469L32.9844 16H30.875L29.6406 8.74219L27.1953 16H25.2656L22.8516 8.74219L21.5938 16H19.4609L21.4453 4.50781ZM43.0234 12.3672H36.1719C36.2708 12.9714 36.5339 13.4531 36.9609 13.8125C37.3932 14.1667 37.9427 14.3438 38.6094 14.3438C39.4062 14.3438 40.0911 14.0651 40.6641 13.5078L42.4609 14.3516C42.013 14.987 41.4766 15.4583 40.8516 15.7656C40.2266 16.0677 39.4844 16.2188 38.625 16.2188C37.2917 16.2188 36.2057 15.7995 35.3672 14.9609C34.5286 14.1172 34.1094 13.0625 34.1094 11.7969C34.1094 10.5 34.526 9.42448 35.3594 8.57031C36.1979 7.71094 37.2474 7.28125 38.5078 7.28125C39.8464 7.28125 40.9349 7.71094 41.7734 8.57031C42.612 9.42448 43.0312 10.5547 43.0312 11.9609L43.0234 12.3672ZM40.8828 10.6875C40.7422 10.2135 40.4635 9.82812 40.0469 9.53125C39.6354 9.23438 39.1562 9.08594 38.6094 9.08594C38.0156 9.08594 37.4948 9.2526 37.0469 9.58594C36.7656 9.79427 36.5052 10.1615 36.2656 10.6875H40.8828ZM44.7422 7.5H46.8828V8.47656C47.2474 8.07552 47.651 7.77604 48.0938 7.57812C48.5417 7.38021 49.0286 7.28125 49.5547 7.28125C50.0859 7.28125 50.5651 7.41146 50.9922 7.67188C51.4193 7.93229 51.763 8.3125 52.0234 8.8125C52.362 8.3125 52.776 7.93229 53.2656 7.67188C53.7604 7.41146 54.2995 7.28125 54.8828 7.28125C55.487 7.28125 56.0182 7.42188 56.4766 7.70312C56.9349 7.98438 57.263 8.35156 57.4609 8.80469C57.6641 9.25781 57.7656 9.99479 57.7656 11.0156V16H55.6172V11.6875C55.6172 10.724 55.4974 10.0729 55.2578 9.73438C55.0182 9.39062 54.6589 9.21875 54.1797 9.21875C53.8151 9.21875 53.487 9.32292 53.1953 9.53125C52.9089 9.73958 52.6953 10.0286 52.5547 10.3984C52.4141 10.763 52.3438 11.3516 52.3438 12.1641V16H50.1953V11.8828C50.1953 11.1224 50.138 10.5729 50.0234 10.2344C49.9141 9.89062 49.7474 9.63542 49.5234 9.46875C49.2995 9.30208 49.0286 9.21875 48.7109 9.21875C48.3568 9.21875 48.0339 9.32552 47.7422 9.53906C47.4557 9.7474 47.2396 10.0417 47.0938 10.4219C46.9531 10.8021 46.8828 11.401 46.8828 12.2188V16H44.7422V7.5ZM63.7969 7.28125C64.599 7.28125 65.3516 7.48177 66.0547 7.88281C66.763 8.28385 67.3151 8.82812 67.7109 9.51562C68.1068 10.2031 68.3047 10.9453 68.3047 11.7422C68.3047 12.5443 68.1042 13.2943 67.7031 13.9922C67.3073 14.6901 66.7656 15.237 66.0781 15.6328C65.3906 16.0234 64.6328 16.2188 63.8047 16.2188C62.5859 16.2188 61.5443 15.7865 60.6797 14.9219C59.8203 14.0521 59.3906 12.9974 59.3906 11.7578C59.3906 10.4297 59.8776 9.32292 60.8516 8.4375C61.7057 7.66667 62.6875 7.28125 63.7969 7.28125ZM63.8281 9.28906C63.1667 9.28906 62.6146 9.52083 62.1719 9.98438C61.7344 10.4427 61.5156 11.0312 61.5156 11.75C61.5156 12.4896 61.7318 13.0885 62.1641 13.5469C62.6016 14.0052 63.1536 14.2344 63.8203 14.2344C64.487 14.2344 65.0417 14.0026 65.4844 13.5391C65.9271 13.0755 66.1484 12.4792 66.1484 11.75C66.1484 11.0208 65.9297 10.4297 65.4922 9.97656C65.0599 9.51823 64.5052 9.28906 63.8281 9.28906ZM69.5547 7.5H71.3828V8.57031C71.5807 8.14844 71.8438 7.82812 72.1719 7.60938C72.5 7.39062 72.8594 7.28125 73.25 7.28125C73.526 7.28125 73.8151 7.35417 74.1172 7.5L73.4531 9.33594C73.2031 9.21094 72.9974 9.14844 72.8359 9.14844C72.5078 9.14844 72.2292 9.35156 72 9.75781C71.776 10.1641 71.6641 10.9609 71.6641 12.1484L71.6719 12.5625V16H69.5547V7.5ZM76.0156 4C76.3906 4 76.7109 4.13542 76.9766 4.40625C77.2474 4.67708 77.3828 5.00521 77.3828 5.39062C77.3828 5.77083 77.25 6.09635 76.9844 6.36719C76.7188 6.63281 76.401 6.76562 76.0312 6.76562C75.651 6.76562 75.3255 6.63021 75.0547 6.35938C74.7891 6.08333 74.6562 5.75 74.6562 5.35938C74.6562 4.98438 74.7891 4.66406 75.0547 4.39844C75.3203 4.13281 75.6406 4 76.0156 4ZM74.9453 7.5H77.0859V16H74.9453V7.5ZM85.3047 7.5H87.4297V16H85.3047V15.1016C84.888 15.4974 84.4688 15.7839 84.0469 15.9609C83.6302 16.1328 83.1771 16.2188 82.6875 16.2188C81.5885 16.2188 80.638 15.7943 79.8359 14.9453C79.0339 14.0911 78.6328 13.0312 78.6328 11.7656C78.6328 10.4531 79.0208 9.3776 79.7969 8.53906C80.5729 7.70052 81.5156 7.28125 82.625 7.28125C83.1354 7.28125 83.6146 7.3776 84.0625 7.57031C84.5104 7.76302 84.9245 8.05208 85.3047 8.4375V7.5ZM83.0625 9.25C82.401 9.25 81.8516 9.48438 81.4141 9.95312C80.9766 10.4167 80.7578 11.013 80.7578 11.7422C80.7578 12.4766 80.9792 13.0807 81.4219 13.5547C81.8698 14.0286 82.4193 14.2656 83.0703 14.2656C83.7422 14.2656 84.2995 14.0339 84.7422 13.5703C85.1849 13.1016 85.4062 12.4896 85.4062 11.7344C85.4062 10.9948 85.1849 10.3958 84.7422 9.9375C84.2995 9.47917 83.7396 9.25 83.0625 9.25ZM89.5703 7.5H91.7109V8.47656C92.0755 8.07552 92.4792 7.77604 92.9219 7.57812C93.3698 7.38021 93.8568 7.28125 94.3828 7.28125C94.9141 7.28125 95.3932 7.41146 95.8203 7.67188C96.2474 7.93229 96.5911 8.3125 96.8516 8.8125C97.1901 8.3125 97.6042 7.93229 98.0938 7.67188C98.5885 7.41146 99.1276 7.28125 99.7109 7.28125C100.315 7.28125 100.846 7.42188 101.305 7.70312C101.763 7.98438 102.091 8.35156 102.289 8.80469C102.492 9.25781 102.594 9.99479 102.594 11.0156V16H100.445V11.6875C100.445 10.724 100.326 10.0729 100.086 9.73438C99.8464 9.39062 99.487 9.21875 99.0078 9.21875C98.6432 9.21875 98.3151 9.32292 98.0234 9.53125C97.737 9.73958 97.5234 10.0286 97.3828 10.3984C97.2422 10.763 97.1719 11.3516 97.1719 12.1641V16H95.0234V11.8828C95.0234 11.1224 94.9661 10.5729 94.8516 10.2344C94.7422 9.89062 94.5755 9.63542 94.3516 9.46875C94.1276 9.30208 93.8568 9.21875 93.5391 9.21875C93.1849 9.21875 92.862 9.32552 92.5703 9.53906C92.2839 9.7474 92.0677 10.0417 91.9219 10.4219C91.7812 10.8021 91.7109 11.401 91.7109 12.2188V16H89.5703V7.5Z" fill="black"/>
<path d="M115.499 0.0882931C114.93 0.258451 114.138 1.05252 113.832 1.74733C113.693 2.07347 113.568 2.83918 113.527 3.81759L113.443 5.34901L112.777 4.35642C111.082 1.81823 108.554 1.64808 109.068 4.10119C109.471 6.01547 111.485 8.2417 113.957 9.51789C114.471 9.7873 114.93 10 114.971 10C115.013 10 115.041 9.61714 115.041 9.14921C115.041 8.01482 115.444 6.99387 116.444 5.57589C117.597 3.94521 117.999 3.06606 117.999 2.15855C118.013 1.32194 117.763 0.712206 117.263 0.34353C116.819 0.0173931 116.069 -0.0960455 115.499 0.0882931Z" fill="black"/>
</svg>
