<svg xmlns="http://www.w3.org/2000/svg" width="7688" height="796" viewBox="0 0 7688 796">
  <defs>
    <style>
      .cls-1 {
        fill-rule: evenodd;
      }
    </style>
  </defs>
  <path id="my_vector_mask_shape" class="cls-1" d="M7595,3c9.57,7.053,11.22,31.212,17,42,13.82,25.789,42.54,45.321,76,51v5c-39.14,7.406-67.02,29.116-81,62q-5.505,15.5-11,31h-1c-6.81-32.224-22.04-62.775-47-77q-22.995-9.5-46-19V97C7554.46,85.462,7583.87,55.881,7595,3ZM7337,59c14.49,12.286,16.91,48.908,24,68,13.14,35.419,29.78,71.042,50,100,32.59,46.675,87.56,76.31,145,98,13.57,5.123,74.05,19.159,71,27-100.2,21.536-188.14,67.286-233,145-17.03,29.494-28.52,64.768-41,98-5.1,13.583-5.22,36.088-16,44v-2q-9.495-31-19-62c-27.09-61.766-50.35-114.477-100-153-31.9-24.75-76.28-42.162-118-56-11.82-3.922-47.44-8.11-52-19h2c44.57-19.264,91.26-25.806,131-48C7266.32,251.346,7312.23,166.505,7337,59ZM3266,193c1.67,1.667,3.33,3.333,5,5,1.38,89.207-111.16,127.007-169,68-10.73-10.942-33.39-49.3-20-72h1l4,1c19.42,46.636,77.94,76.129,139,46C3247.8,230.244,3250.55,209.472,3266,193ZM1614,206c70.69-1.958,70.06,68.506,44,115a175.964,175.964,0,0,1-43,51c-8.35,6.632-23.97,27.937-36,23l-3-5c4.48-11.217,18.52-16.491,27-24,20.13-17.831,44.29-45.816,50-77-15.54,2.794-27.82,12.773-48,7-33.44-9.566-41-54.874-16-79C1595.52,210.713,1605.4,210.483,1614,206ZM10,210c129.428-.058,269.793,3,404,3H520c18.5-2.762,48.421-5.673,63,0q-0.5,4-1,8c-23.172,1.93-51.459,5.266-60,22-11.446,22.426-9,74.119-9,107V569c0,33.624-1.8,90.486,12,110,10.335,14.61,36.786,14.146,58,18v6l-2,3c-13.375,4.115-38.105,1.384-54-1l-116,1c-17.5,2.614-46.49,4.45-57-2,0.215-4.513.708-5.391,2-8,22.149-.065,46.2-4.23,55-18,17.1-26.746,13-83.634,13-125q-0.5-162.483-1-325l-196-1c-12.081,0-59.791-2.536-64,3q-0.5,53.495-1,107,0.5,128.487,1,257c5.071,33.2-2.148,64.329,13,86,9.571,13.692,34.307,13.416,54,17q1,2,2,4c-1.34,4.212-2.515,4.335-5,7-46.779.025-97.533-3.009-148-3L5,707l-3-5,3-6c21.134-.038,48.909-4.658,57-18,12.016-19.815,5.775-50.5,10-78l1-252c0-34.842,3.25-86.68-12-109-9.848-14.414-38.179-14.7-58-19v-5l3-4ZM2156,337l40,9,144,2,77-1c25.34-3.851,47.61-4.842,67-9,5.52-1.183,6.99.558,9,3q12.495,59.994,25,120c2.63,12.912,8.01,31.9,3,41h-1c-3.89-1.143-4.06-.9-6-4q-8.505-21-17-42c-20.74-44.9-62.42-105.248-132-96q-0.495,113.988-1,228c0,30.941-4.17,73.754,9,93,11.89,17.378,37.48,7.758,57,18,0.33,1,.67,2,1,3-0.67,1-1.33,2-2,3-4.73,5.024-30.98,4.809-41,3-33.82-6.106-78.51-3.16-117-3-12.93.054-36.39,5.032-44-3q2.505-3.5,5-7c17.63,0.228,35.24-2.288,43-12,9.64-12.071,9-67.589,9-90q-0.495-116.488-1-233c-80.15-11-133.91,80.09-149,140-2.33.667-4.67,1.333-7,2l-3-3c1.28-24.379,8.78-49.3,14-71C2145.33,397.491,2144.41,363.853,2156,337ZM788,338c144.727-1.465,166.022,41.91,166,185,0,28.354-5.563,142.61,8,151,20.185,19.673,41.62-21.094,58-23l3,5c-13.51,36.251-86.316,81.349-130,43-14.907-13.086-18.994-33.6-19-62q-0.5-13.5-1-27c-27.09,37.3-48.6,76.183-95,94-68.621,26.352-132.785-7.319-148-62-26.912-96.717,115.413-134.323,181-150,19.832-4.74,46.556-4.093,62-14,0.814-64.046-11.1-103.22-57-120-16.752-6.124-62.551-2.783-73,8q-3,19-6,38c-8.413,27.394-35.517,83.545-77,58-20.714-12.756-16.663-45.173-3-62,20.089-24.742,52.551-44.3,87-54Zm1923,0c161.53-1.686,166.04,56.117,166,213-0.01,26.357-6.44,104.615,4,120,16.1,23.724,46.43-11.828,57-20h4c0.33,1,.67,2,1,3,1.68,2.1,1.55,1.975,2,6-21.14,33.31-94.56,83.609-135,32-15.09-19.255-10.31-48.774-14-81-0.67.333-1.33,0.667-2,1-15.78,41.873-60.64,82.286-105,96-69.91,21.614-124.06-18.847-137-70-22.42-88.627,104.77-126.524,166-142,11.64-2.942,76.49-13.169,79-19,3.55-8.248-.89-26.271-2-32-9.32-48.253-18.58-76.21-61-90-20.13-6.542-61.58,2.939-69,14q-3,19-6,38c-4.9,14.307-10.93,32.145-20,43-15.59,18.647-54.91,22.962-69,0-12.32-20.077,5.52-45.191,14-55,19.49-22.556,50.97-39.559,83-49Q2689.005,342,2711,338Zm1515,0c94.74-1.019,150.58,20.739,165,100V554c0,37.71-7.48,97.807,9,121,29.32,9.5,34.84-17.975,57-24,1.33,1.333,2.67,2.667,4,4v6c-28.21,23.187-49.65,63.641-105,48-16.4-4.634-27.24-10.264-35-23-11.35-18.617-5.4-46.892-10-74h-1c-0.67.333-1.33,0.667-2,1-27.05,83.823-194.97,154.9-238,37-12.75-34.942,5.95-68.051,20-86,43.52-55.613,141.08-63.793,220-84,4.23-14.931,1.2-42.859-2-55-14.54-55.19-65.63-96.648-128-57-0.2,37.578-15.68,80.844-41,94-18.36,9.538-45.47,3.149-53-12-25.6-51.485,59.94-91.6,93-103Zm754,0c144.39-1.458,166.02,42.215,166,185,0,28.366-5.59,142.6,8,151,17.99,16.418,42.42-14.555,53-23h4c0.33,1,.67,2,1,3,1.6,1.984,1.3,1.389,2,5-17.25,33.942-81.08,76.727-127,41-23.79-18.514-17.55-49.974-22-89-0.67.333-1.33,0.667-2,1-13.87,38.816-64.04,83.337-105,96-73.89,22.846-128.5-21.5-138-80-14.13-87.01,117.51-115.418,179-135,19.05-6.065,54.3-3.01,67-16,1.45-56.915-13.17-100.611-51-118-19.9-9.146-72.29-6.048-81,11q-2.505,16.5-5,33c-3.93,15.464-11.61,35.856-21,47-15.71,18.652-54.74,22.965-69,0-12.42-20.006,5.68-45.2,14-55,19.25-22.685,51.06-39.586,83-49Q4958.005,342,4980,338Zm-371,3c62.9-1.026,170.46,17.819,144,93-10.17,28.9-40.92,44.612-68,57q-16.995,6-34,12v1c52.29,3.9,92.06,10.658,115,43,39.33,55.46-.18,115.327-41,140-25.56,15.45-56.15,20.361-92,26-52.36,8.236-92.06-36.85-122,8l-8-1q-9-54.5-18-109c-3.15-12.32-10.47-35.8-5-48h5c23,49.406,44.61,97.288,90,124,33.68,19.817,79.66,8.862,99-16,40.04-51.478,17.79-137.18-42-149-44.72-8.84-56.33,30.457-94,22-1.33-2-2.67-4-4-6-3.73-24.014,28.19-20.82,48-26,35.97-9.407,71.9-31.011,87-62,17.65-36.23-1.7-79.45-26-91-15-7.13-52.49-6.4-60,6-15.93,30.573-19.53,67.6-48,85-15.08,9.217-37.33-1.247-43-11-9.53-16.39,2.47-37.974,10-47,17.98-21.545,46.29-36.587,76-46Zm1031,1c110.45-.154,54.4,137.719,149,163,9.24,2.47,29.06,5.382,41,2,0.49-35.7,5.68-122.035-10-140-8.33-9.543-28.89-9.361-44-12-0.33-.667-0.67-1.333-1-2,0.27-5.288-.23-4.821,3-7h185c0.33,2,.67,4,1,6l-3,4c-15.03-.035-36.38,3.142-43,12-9.43,12.612-13.86,115.517-7,140,62.46-.457,86.75-19.819,102-66,13.17-39.858,21.47-115.015,86-100,23.67,5.506,63.43,37.248,35,66-26.75,27.059-76.51-1.841-84-25h-4c-13.06,21.638-14.98,52.194-25,77-9.97,24.682-28.7,33.523-45,51v1c47.17,7.478,79.12,34.07,96,72,26.12,58.7,19.94,123.59,117,105,38.76-33,45.03-155.719,52-226,2.5-25.2,7.87-70.95-3-90-10.26-17.983-41.05-14.507-65-19v-8l264,1c24.35,0,83.09-8.112,99,1v4l-3,2c-15.09,6.671-35.5,1.15-44,14-10.83,16.373-8,50.151-8,76V612c0,21.717-5.9,59.709,2,77,15.19,1.7,43.16-2.88,56,3,4.79,25.974,5.42,80.6,1,104h-6v-2c-6.26-7.288-4.32-25.554-8-35-7.89-20.245-28.78-38.155-49-46-41.69-16.174-113.55-9-169-9l-73,1c-21.92,5.007-41.97,12.029-57,24-20.04,15.967-22.04,36.9-29,67h-7c-3.47-26.848,2.09-64.783-1-90-40.8-7.462-94.94,9.5-115-18-31.84-43.654-34.43-181.452-116-166-0.37,39.858-8.06,138.871,8,162,8.59,12.377,31.18,7.5,46,14-0.33,2.666-.67,5.334-1,8-10.39,3.7-29.29.91-42-1l-103,1c-14.5,2.173-34.59,3.8-43-2,0.22-4.513.71-5.391,2-8,14.95,0.154,34.78-1.946,42-10,13.95-15.569,16.45-131.79,10-165-91.35.1-77.2,113.273-116,167-13.6,18.831-44.33,17-77,17-14.03,0-33.27,1.95-44-2,0.33-2.333.67-4.667,1-7,0.67-1.333,1.33-2.667,2-4,53.98-1.629,56.6-80.416,77-117,23.32-41.827,46.61-44.906,92-64-0.33-.667-0.67-1.333-1-2-30.19-10.489-44.62-46.44-54-78-4.21-14.163-6.09-43.007-20-47-7.87,22.783-61.36,51.916-85,22C5576.22,370.846,5618.98,352.694,5640,342ZM1390,398l-6,1q-37.995,54.5-76,109c-6.19,8.735-15.82,16.564-19,28q7.5,12.5,15,25c-5.47,14-36.02,33.037-47,52-1.67.333-3.33,0.667-5,1q-74.49-104.99-149-210l-3,2c-0.45,74.152-11.21,212.638,17,257,9.32,14.66,26.59,26.533,45,32,8.08,2.4,18,.85,24,4,0.33,1,.67,2,1,3-0.33.667-.67,1.333-1,2-1.67,1.333-3.33,2.667-5,4-23.69.021-148.59-.158-156-5v-1c0.67-1.667,1.33-3.333,2-5,16.82-2.03,38.94-2.933,48-13,12.83-14.257,9-51.8,9-78V453c0-26.211,2.61-56.448-5-76-8.64-22.186-54.69-14.146-53-31l131,2,121,173c13.46-8.545,22.05-28.751,31-42q34.995-48.495,70-97c7.33-10.336,13.98-27.65,25-34l119-2c3.64,2.656,1.1,6.264,0,9-17.64,2.944-35.44,1.244-44,13-11.39,15.644-8,49.681-8,76V607c0,23.518-3.72,55.985,5,72,9.22,16.931,31.39,10.219,49,19-0.67,2.333-1.33,4.667-2,7H1391c-16.32.02-38.39,7.318-52,2-1.33-.667-2.67-1.333-4-2v-4a11.128,11.128,0,0,1,4-4c16.57-6.221,35.83-1.163,44-15,11.21-18.982,7-58.586,7-87V398Zm702-53c10.68-.344,22.47-0.5,29,3-0.33,2-.67,4-1,6-16.56,4.815-40.38,3.316-48,17-9.5,17.055-7,50.7-7,75V603c0,25.394-3.01,61.148,7,79,7.2,12.841,29.62,12.027,47,15,0.67,2,1.33,4,2,6l-6,5c-44.85-.229-95.98-5.152-145-3l-63,2c-1.67-1.667-3.33-3.333-5-5,1.37-3.6.9-3.172,4-5,23.07-8.522,46.92-1.438,64-14,15.92-11.709,19.1-106.993,13-139-69-.3-100.33,24.94-123,70-12.48,24.808-17.39,61.4-38,78-12.72,10.246-91.96,22.6-117,11-0.33-1-.67-2-1-3,0.58-4.632.75-5.972,4-8l26-5c29.43-15.246,37.98-83.553,59-111,8.74-11.408,24.64-22.489,38-29,7.93-3.866,18.11-3.284,24-9-4.67-7.827-26.14-9.321-35-13-18.91-7.855-41.11-22.8-52-39-20.33-30.236-11.32-71.183,8-95,38.99-48.077,129.76-44.007,217-44Zm861,0,131,2c15.52-2.292,40.98-4.553,55,0-0.22,4.513-.71,5.391-2,8-12.83,1.473-32.19.975-40,8-13.31,11.965-8.5,33.349-12,56V632c0.67,0.667,1.33,1.333,2,2q66-90.991,132-182c10.46-14.371,41.66-44.923,43-64-11.8-39.147-24.12-18.73-53-35v-1l3-7,130,2c16.49-.721,43.81-6.07,57,1v5l-3,3c-17.58-.189-36.09,1.424-43,12-11.73,17.938-9,53.61-9,82V599c0,26.129-2.74,55.74,5,76,10.52,27.511,39.81,12.677,49,24,0.33,1.667.67,3.333,1,5-1.67,1-3.33,2-5,3l-131-2-49,2c-1.33-.667-2.67-1.333-4-2v-8h2c16.27-6.332,35.74-1.159,44-15,10.54-17.664,8-51.227,8-78q-0.495-89.991-1-180c-1.33,1.333-2.67,2.667-4,4q-86.49,118.488-173,237c6.53,27.243,23.08,27.2,52,32,1.31,4,.51,5.9-1,9l-3,2c-39.34-.093-83.74-3.067-127-3l-53,2-6-5c1.49-3.067,1.11-3.215,4-5,13.68-5.3,32.18-1.259,41-11,12.86-14.208,11-53.186,11-79,0-61.409,7.54-139.117-2-196-2.59-15.447.67-27.528-5-39-7.13-14.418-30.89-13.591-48-18-0.33-1.666-.67-3.334-1-5C2949.67,347.667,2951.33,346.333,2953,345Zm638,0c42.13-.277,88.82,7.283,131,1,13.12-1.955,42.82-4.53,52,1h2c0.11,5.55.69,4.409-2,8-12.14,2.014-28.91,2.269-38,8-19.95,12.57-15,64.98-15,97,0,12.669-4.74,49.994,3,56l43,1c26.33,0,110.7,5.865,128-2,0.42-40.793,6.83-122.947-9-148-7.88-12.471-32.33-7.235-46-14,0.33-2.333.67-4.667,1-7h187c0.67,1.333,1.33,2.667,2,4-0.67,1.666-1.33,3.334-2,5-15.66,2.748-37.71,2.835-45,14-10.7,16.391-9,54.2-9,79,0,58.08-7.3,132.442,2,186,3.02,17.394-1.34,35.336,6,48,8.46,14.6,40.39,6.323,48,20-0.67.667-1.33,1.333-2,2-0.67,1.333-1.33,2.667-2,4-43.06.476-96.69-9.2-142-2-16.94,2.693-43.83,6.534-43-9h2c18.78-6.968,34.9-1.229,45-16,10.62-15.529,11.21-122.684,6-150l-124-1c-14.45,0-37.18-2.906-48,2-4.38,31.627-4.62,141.893,10,155,9.3,8.34,28.02,7.461,43,10,0.67,1.667,1.33,3.333,2,5l-6,6c-40.51-.034-86.48-3.368-131-3-18.17.15-41.71,6.241-54-1v-5l3-2c15.06-5.766,34.42-1.233,43-13,11.95-16.379,9-52.847,9-80V451c0-26.787,2.7-58.423-6-78-7.71-17.363-32.61-11.326-49-20,0.33-2.333.67-4.667,1-7Zm1631,0,103,2c78.85,0,162.71-4.7,213,24,41.37,23.612,44.01,84.754,4,112-15.79,10.753-37.32,18.807-57,25q-17.505,3.5-35,7h2c9.8,5.638,22.9,3.624,36,7,41.31,10.645,82.45,19.771,99,55,15.03,31.975-1.68,70.323-19,86-49.25,44.58-133.46,41-229,41-24.9,0-108.96,5.539-121-1,0.33-2.333.67-4.667,1-7,13.41-1.6,35.9-2.57,43-11,12.43-14.758,11-52.036,11-78,0-61.845,7.47-139.642-2-197-3.12-18.873.24-33.3-9-45-7.41-9.384-29.13-8.262-43-11C5217.03,348.458,5218.7,347.821,5222,345Zm1338,0,128,2c17.99-.788,41.62-4.365,58,0,0.33,0.667.67,1.333,1,2-0.33,1-.67,2-1,3-1.39,1.923-.1.6-2,2-12.24,7.09-33.56.438-42,11-17.45,21.847-10,159-10,204,0,16.7-5.24,53.494,3,64,0.67-.333,1.33-0.667,2-1Q6783,513.512,6869,395c0.26-40.655-26.85-28.442-53-42v-1c0.33-1.666.67-3.334,1-5l3-1h49l83,1c14.97-2.191,40.54-4.776,54,0-0.33,2.666-.67,5.334-1,8-16.93,1.918-37.83,1.313-45,13-11.01,17.963-8,51.922-8,80V604c0,24.759-3.43,55.969,5,74,8.87,18.977,29.4,11.383,49,20-0.3,5.588-1.02,5.838-3,9l-56-2-127,2c-1.33-1.667-2.67-3.333-4-5l3-6c16.25,0.086,37.64-2.994,44-13,10.63-16.726,7-52.066,7-78V427c-12.92,3.338-40.12,50.6-49,63q-63.99,87.491-128,175c10.66,33.651,19.94,20.676,50,32l3,2v5c-1.67,1.333-3.33,2.667-5,4-39.32-.045-83.75-3.094-127-3l-53,2c-1.67-1-3.33-2-5-3,0.22-4.513.71-5.391,2-8,15.44,0.137,35.91-2.367,43-11,12.35-15.034,9-50.395,9-77V446c0-25.084,3.29-57.1-6-74-8.44-15.358-30.25-11.825-48-18C6556.16,347.241,6556.57,347.973,6560,345ZM5363,359c-1.43,1.339-1.76,1.247-3,3-4.52,10.161-9.77,132.462-4,147,0.67,1,1.33,2,2,3,68.53,1.3,109.81-12.9,123-68,4.69-19.59-1.1-43.442-11-55C5448.84,364.289,5409.71,358.294,5363,359Zm898,1c-4.32,16.65,1.58,40.649-2,60-11.97,64.786-5.14,136.376-21,195-4.23,15.638-30.23,66.764-27,75h133c16.74,0,44.11,3.8,57-2q-0.495-163.484-1-327Zm-4334,3-22,4c-26.19,7.208-49.29,23.213-58,48-26.01,74.034,43.77,105.16,100,114,9.52,1.5,30.59,2.56,37,0,0.33-52.63,7.81-121.834-5-166h-52ZM864,496l-61,13c-40.143,12.314-110.23,40.8-98,99,3.581,17.043,8.964,28.779,20,38,55.527,46.393,136.8-15.346,148-64,2.194-9.535.7-81.967-2-85Zm1922,0-45,9c-41.8,12.684-82.23,24.346-103,58-14.4,23.326-14.02,62.254,6,80,63.97,56.7,153-16.439,153-91,0-16.386,3.78-43.482-2-56h-9Zm1516,0-46,9c-42.01,12.785-82.37,24.771-103,59-15.63,25.937-10.87,65.046,10,82,57.08,46.375,132.5-14.686,148-61q-0.495-44.5-1-89h-8Zm753,0-61,13c-42.85,13.915-115.76,41.922-95,107,3.96,12.4,7.47,21.583,16,29,63.22,54.946,151-21.231,151-92,0-16.636,3.88-44.26-2-57h-9Zm303,29c-7.54,8.46-3.18,94.52-3,114,2.9,12.7-2.13,44.235,7,51l32,1c53.97-.032,124.03-32.133,110-94C5490.08,535.625,5433.99,524.019,5358,525Z"/>
</svg>
