<svg width="105" height="106" viewBox="0 0 105 106" fill="none" xmlns="http://www.w3.org/2000/svg">
<rect y="0.5" width="105" height="105" fill="#D1D1D6"/>
<path fill-rule="evenodd" clip-rule="evenodd" d="M60.1448 63.6776C62.3849 63.4887 64.2809 61.7968 64.6225 59.5345C64.8736 57.8701 65 56.244 65 54.6148C65 52.9856 64.8736 51.3594 64.6225 49.695C64.2809 47.4326 62.385 45.7408 60.1448 45.5517C59.7177 45.5157 59.2905 45.4826 58.8632 45.4526L58.0489 43.9431C57.5582 43.0335 56.6743 42.3584 55.6093 42.2134C54.5645 42.0711 53.5324 42 52.5003 42C51.4682 42 50.4356 42.0711 49.3908 42.2134C48.3257 42.3584 47.4418 43.0335 46.9512 43.9431L46.1369 45.4526C45.7096 45.4826 45.2824 45.5157 44.8553 45.5517C42.6151 45.7408 40.7191 47.4326 40.3776 49.695C40.1263 51.3594 40 52.9856 40 54.6148C40 56.244 40.1263 57.8701 40.3776 59.5345C40.7191 61.7968 42.6152 63.4887 44.8553 63.6776C47.4006 63.8925 49.9507 64 52.5003 64C55.0499 64 57.5995 63.8925 60.1448 63.6776ZM52.4998 49.5877C51.1226 49.5877 49.9663 49.9842 49.155 50.8109C48.3436 51.6377 47.9545 52.8158 47.9545 54.2192C47.9545 55.6226 48.3436 56.8009 49.155 57.6276C49.9663 58.4544 51.1226 58.8508 52.4998 58.8508C53.8771 58.8508 55.0333 58.4544 55.8446 57.6276C56.656 56.8009 57.0451 55.6226 57.0451 54.2192C57.0451 52.8158 56.656 51.6377 55.8446 50.8109C55.0333 49.9842 53.8771 49.5877 52.4998 49.5877Z" fill="white"/>
</svg>
