<svg width="52" height="53" viewBox="0 0 52 53" fill="none" xmlns="http://www.w3.org/2000/svg">
<path d="M16.1747 0.133401C11.8716 0.722425 7.64915 2.95872 4.767 6.17339C-0.322111 11.844 -1.44071 19.9106 1.91508 26.6994C4.30344 31.5114 8.66697 35.0954 13.8569 36.4831C16.4971 37.192 19.994 37.3317 22.2211 36.8226C22.4428 36.7727 22.9467 36.6628 23.3297 36.573C25.194 36.1337 27.3606 35.2053 29.0234 34.127C32.6311 31.771 35.4024 28.1969 36.6218 24.3433C37.0048 23.1353 37.0652 22.8857 37.2365 22.0471C37.7505 19.4314 37.6799 16.676 37.0249 14.0903C36.2187 10.8556 34.4249 7.72082 32.0668 5.39468C29.104 2.4895 25.2948 0.652541 21.032 0.0934676C19.994 -0.0463007 17.3134 -0.0263338 16.1747 0.133401ZM20.9111 5.18503C22.1304 5.37471 23.3397 5.73412 24.5692 6.29319C26.0405 6.94211 28.0157 8.3997 28.973 9.52783C29.2451 9.8473 29.4971 10.1368 29.5374 10.1668C29.5777 10.1967 29.8498 10.5961 30.1622 11.0653C31.1699 12.6127 31.6839 13.7908 32.1172 15.5578C32.349 16.4863 32.3792 16.8157 32.3792 18.453C32.3893 20.27 32.3288 20.7892 31.9358 22.1968C31.6032 23.4348 30.7063 25.3616 30.0614 26.2102C27.7436 29.325 24.9723 31.112 21.3242 31.8309C19.9134 32.1104 17.5452 32.1104 16.1747 31.8209C11.8111 30.9124 8.46542 28.3666 6.52048 24.493C4.79723 21.0487 4.6763 16.8457 6.198 13.2616C8.15302 8.64928 12.7383 5.3847 17.6863 5.08519C18.9359 5.01531 19.994 5.04526 20.9111 5.18503Z" fill="#C7C7CC"/>
<path d="M36.8738 30.543C36.7125 30.6029 36.3195 31.0222 35.9164 31.5513C34.6769 33.1886 32.6916 34.9956 30.5048 36.4931C30.0513 36.8026 30.0312 36.8425 30.0312 37.2918C30.0412 37.5614 30.0916 37.8708 30.1622 37.9807C30.2529 38.1504 33.0342 41.2353 34.0017 42.2436C34.0621 42.3135 34.7474 43.0622 35.5234 43.9108C36.2993 44.7594 37.1458 45.6779 37.3978 45.9574C38.2241 46.846 41.2272 50.1205 42.1644 51.1488C43.545 52.6663 43.7768 52.866 44.2404 52.9459C45.1776 53.1056 45.3388 53.0157 47.314 51.2087C47.5962 50.9591 48.2512 50.3701 48.7752 49.9009C49.2992 49.4317 49.7527 49.0323 49.783 49.0024C49.8132 48.9724 50.2566 48.5731 50.7705 48.1139C51.738 47.2453 52 46.846 52 46.247C52 45.8077 51.8287 45.4483 51.3954 44.9491C51.0729 44.5797 47.0923 40.2369 46.9613 40.1171C46.931 40.0872 46.276 39.3684 45.5 38.5198C44.7241 37.6712 43.8574 36.7227 43.5652 36.4232C43.283 36.1237 42.9605 35.7843 42.8598 35.6645C42.759 35.5447 41.7109 34.3966 40.5218 33.0988C38.0629 30.4032 37.7807 30.2135 36.8738 30.543Z" fill="#C7C7CC"/>
<path fill-rule="evenodd" clip-rule="evenodd" d="M13.1776 13.0473C13.9242 12.3081 15.1346 12.3081 15.8812 13.0473L18.5441 15.6838L21.207 13.0473C21.9536 12.3081 23.1641 12.3081 23.9106 13.0473C24.6572 13.7865 24.6572 14.985 23.9106 15.7242L21.2478 18.3607L23.9106 20.9973C24.6572 21.7365 24.6572 22.935 23.9106 23.6742C23.1641 24.4134 21.9536 24.4134 21.207 23.6742L18.5441 21.0376L15.8812 23.6742C15.1346 24.4134 13.9242 24.4134 13.1776 23.6742C12.431 22.935 12.431 21.7365 13.1776 20.9973L15.8405 18.3607L13.1776 15.7242C12.431 14.985 12.431 13.7865 13.1776 13.0473Z" fill="#C7C7CC"/>
</svg>
