<svg width="18" height="20" viewBox="0 0 18 20" fill="none" xmlns="http://www.w3.org/2000/svg">
<path d="M7.69993 1.17816C5.39232 2.08144 2.08851 4.14246 1.3193 5.14753C0.550098 6.16531 0.449219 6.75054 0.449219 10.1347C0.449219 13.4934 0.562708 14.1677 1.30669 15.1473C2.01285 16.1015 5.25361 18.137 7.48557 19.0276C8.99876 19.6383 9.75535 19.5619 11.7225 18.6205C12.9709 18.0353 15.909 16.2414 16.4512 15.7452C16.9682 15.2618 17.3591 14.6002 17.624 13.7478C17.8131 13.1117 17.8509 12.5519 17.8383 10.0711C17.8383 7.36121 17.8131 7.08132 17.5483 6.3307C17.397 5.8727 17.1196 5.32564 16.943 5.12208C16.6152 4.71497 14.7741 3.27734 14.5976 3.26462C14.5345 3.26462 14.2571 3.09923 13.9671 2.89567C13.2861 2.42495 11.5081 1.53438 10.4993 1.15271C9.49055 0.771044 8.73395 0.771044 7.69993 1.17816ZM10.0202 7.59022C11.1298 7.84466 11.7351 8.74795 11.7351 10.1474C11.7351 11.1143 11.5964 11.585 11.1929 12.0176C10.7011 12.5646 10.0454 12.8064 9.13747 12.8064C7.58644 12.8064 6.66592 12.0049 6.48938 10.4909C6.23718 8.36628 7.82603 7.0686 10.0202 7.59022Z" fill="#C7C7CC"/>
</svg>
